<?xml version="1.0" encoding="utf-8"?>
<!-- Generator: Adobe Illustrator 16.0.0, SVG Export Plug-In . SVG Version: 6.00 Build 0)  -->
<!DOCTYPE svg PUBLIC "-//W3C//DTD SVG 1.1//EN" "http://www.w3.org/Graphics/SVG/1.1/DTD/svg11.dtd" [
	<!ENTITY ns_extend "http://ns.adobe.com/Extensibility/1.0/">
	<!ENTITY ns_ai "http://ns.adobe.com/AdobeIllustrator/10.0/">
	<!ENTITY ns_graphs "http://ns.adobe.com/Graphs/1.0/">
	<!ENTITY ns_vars "http://ns.adobe.com/Variables/1.0/">
	<!ENTITY ns_imrep "http://ns.adobe.com/ImageReplacement/1.0/">
	<!ENTITY ns_sfw "http://ns.adobe.com/SaveForWeb/1.0/">
	<!ENTITY ns_custom "http://ns.adobe.com/GenericCustomNamespace/1.0/">
	<!ENTITY ns_adobe_xpath "http://ns.adobe.com/XPath/1.0/">
]>
<svg version="1.1" id="Capa_1" xmlns:x="&ns_extend;" xmlns:i="&ns_ai;" xmlns:graph="&ns_graphs;"
	 xmlns="http://www.w3.org/2000/svg" xmlns:xlink="http://www.w3.org/1999/xlink" x="0px" y="0px" width="512px" height="512px"
	 viewBox="0 0 512 512" enable-background="new 0 0 512 512" xml:space="preserve">
<metadata>
	<sfw  xmlns="&ns_sfw;">
		<slices></slices>
		<sliceSourceBounds  height="512" width="512" y="140.5" x="49.5" bottomLeftOrigin="true"></sliceSourceBounds>
	</sfw>
</metadata>
<g>
	<g>
		<path fill="#3B2FB3" d="M256,0C114.609,0,0,114.609,0,256c0,141.391,114.609,256,256,256c141.391,0,256-114.609,256-256
			C512,114.609,397.391,0,256,0z M256,472c-119.297,0-216-96.703-216-216S136.703,40,256,40s216,96.703,216,216S375.297,472,256,472
			z"/>
		<g>
			<g>
				<path fill="#3B2FB3" d="M242.531,192.656c4.719,6.594,7.094,14.547,7.094,23.797c0,9.516-2.406,17.203-7.156,23
					c-2.688,3.234-6.578,6.203-11.75,8.859c7.859,2.922,13.797,7.484,17.812,13.766c4,6.328,6,13.922,6,22.891
					c0,9.25-2.281,17.531-6.875,24.859c-2.906,4.891-6.531,8.969-10.906,12.344c-4.906,3.797-10.75,6.375-17.422,7.813
					c-6.703,1.375-13.969,2.078-21.797,2.078H128V176h74.578C221.375,176.266,234.719,181.812,242.531,192.656z M158.781,203.141
					v34.375h37.5c6.688,0,12.109-1.281,16.328-3.844c4.141-2.609,6.25-7.172,6.25-13.719c0-7.297-2.766-12.047-8.281-14.406
					c-4.75-1.625-10.859-2.406-18.234-2.406H158.781z M158.781,263.406v41.578h37.438c6.688,0,11.906-0.953,15.625-2.768
					c6.781-3.404,10.156-9.904,10.156-19.482c0-8.143-3.281-13.703-9.844-16.734c-3.656-1.688-8.781-2.563-15.406-2.594H158.781z"/>
				<path fill="#3B2FB3" d="M354.156,218.984c7.969,3.625,14.547,9.297,19.75,17.078c4.641,6.906,7.688,14.844,9.094,23.891
					c0.781,5.281,1.109,12.891,0.969,22.859h-83.094c0.469,11.625,4.469,19.719,11.969,24.391
					c4.531,2.891,10.018,4.328,16.406,4.328c6.797,0,12.328-1.766,16.547-5.297c2.344-1.906,4.375-4.518,6.172-7.938h30.438
					c-0.797,6.812-4.5,13.797-11.063,20.892C361.125,330.359,346.813,336,328.422,336c-15.172,0-28.547-4.734-40.172-14.203
					c-11.594-9.484-17.375-24.859-17.375-46.219c0-19.969,5.219-35.328,15.719-46c10.453-10.656,24.047-16.016,40.768-16.016
					C337.281,213.562,346.219,215.422,354.156,218.984z M309.563,245.062c-4.221,4.422-6.846,10.359-7.938,17.906H353
					c-0.547-8.031-3.203-14.141-7.969-18.266c-4.734-4.141-10.625-6.219-17.656-6.219
					C319.719,238.484,313.766,240.703,309.563,245.062z"/>
			</g>
			<rect x="288" y="192" fill="#3B2FB3" width="80" height="16"/>
		</g>
	</g>
</g>
</svg>
