<?xml version="1.0" encoding="utf-8"?>
<!-- Generator: Adobe Illustrator 22.0.1, SVG Export Plug-In . SVG Version: 6.00 Build 0)  -->
<svg version="1.1" id="Capa_1" xmlns="http://www.w3.org/2000/svg" xmlns:xlink="http://www.w3.org/1999/xlink" x="0px" y="0px"
	 viewBox="0 0 512 512" style="enable-background:new 0 0 512 512;" xml:space="preserve">
<style type="text/css">
	.st0{fill:#3B2FB3;}
</style>
<g>
	<path class="st0" d="M256-0.1C114.8-0.1,0,114.6,0,255.5c0,141,114.8,255.7,256,255.7s256-114.7,256-255.7
		C512,114.6,397.2-0.1,256-0.1z M424.4,120.6c29.2,36.2,47,81.9,47.8,131.7c-9.7-2-50.9-9.7-100.1-9.7c-15.9,0-32.6,0.8-49.3,2.9
		c-1.4-3.4-2.8-6.9-4.3-10.3c-4.4-10.2-9-20.3-13.9-30.3C380.3,173.6,416.9,130.4,424.4,120.6z M256,39.9
		c54.5,0,104.4,20.3,142.5,53.7c-6,8.2-38.7,49.1-111.7,76.7C253,108.5,216,57.4,207.2,45.5C222.9,41.8,239.2,39.9,256,39.9z
		 M163.1,60.9c7.5,10.3,44.5,61.9,79.1,123.2c-93,24.4-175.5,26-195.5,26c-0.8,0-1.5,0-2.1,0C58.9,144.1,103.5,89.3,163.1,60.9z
		 M39.7,255.9c0-1.8,0-3.6,0.1-5.3c1.3,0,3.2,0,5.7,0c26.8,0,120-2.2,216-30.7c5.8,11.4,11.4,23,16.5,34.5c-2.4,0.7-4.8,1.4-7.2,2.2
		C162.7,291.5,103.3,383.9,94.2,399C60.3,360.8,39.7,310.7,39.7,255.9z M256,471.9c-49.6,0-95.4-16.8-131.9-45
		c6.2-12.1,51-92.9,169.5-134.1c0.1,0,0.2-0.1,0.2-0.1c29.7,77.3,42.3,142.3,45.7,162.4C313.8,465.9,285.6,471.9,256,471.9z
		 M378.5,433.8c-2.9-16.6-14.5-77.5-41.5-151.7c15.1-2.3,29.8-3.3,43.5-3.3c45.2,0,80.6,9.9,88.8,12.4
		C459.6,350.2,425.8,401.2,378.5,433.8z"/>
</g>
</svg>
