<?xml version="1.0" encoding="utf-8"?>
<!-- Generator: Adobe Illustrator 16.0.0, SVG Export Plug-In . SVG Version: 6.00 Build 0)  -->
<!DOCTYPE svg PUBLIC "-//W3C//DTD SVG 1.1//EN" "http://www.w3.org/Graphics/SVG/1.1/DTD/svg11.dtd" [
	<!ENTITY ns_extend "http://ns.adobe.com/Extensibility/1.0/">
	<!ENTITY ns_ai "http://ns.adobe.com/AdobeIllustrator/10.0/">
	<!ENTITY ns_graphs "http://ns.adobe.com/Graphs/1.0/">
	<!ENTITY ns_vars "http://ns.adobe.com/Variables/1.0/">
	<!ENTITY ns_imrep "http://ns.adobe.com/ImageReplacement/1.0/">
	<!ENTITY ns_sfw "http://ns.adobe.com/SaveForWeb/1.0/">
	<!ENTITY ns_custom "http://ns.adobe.com/GenericCustomNamespace/1.0/">
	<!ENTITY ns_adobe_xpath "http://ns.adobe.com/XPath/1.0/">
]>
<svg version="1.1" id="Layer_1" xmlns:x="&ns_extend;" xmlns:i="&ns_ai;" xmlns:graph="&ns_graphs;"
	 xmlns="http://www.w3.org/2000/svg" xmlns:xlink="http://www.w3.org/1999/xlink" x="0px" y="0px" width="167.711px"
	 height="97.26px" viewBox="0 0 167.711 97.26" enable-background="new 0 0 167.711 97.26" xml:space="preserve">
<metadata>
	<sfw  xmlns="&ns_sfw;">
		<slices></slices>
		<sliceSourceBounds  width="612" height="792" y="-40.62" x="24.099" bottomLeftOrigin="true"></sliceSourceBounds>
	</sfw>
</metadata>
<g id="Layer_1_1_" display="none">
	<rect x="-197.546" y="-306.25" display="inline" fill="#1E1E1E" width="612" height="792"/>
</g>
<g id="Layer_2">
	<g enable-background="new    ">
		<path fill="#FFFFFF" d="M26.718,48.75L13.83,26.934H3.75V48.75H0.438V1.302h13.608c2.352,0,4.488,0.229,6.408,0.685
			c1.919,0.456,3.552,1.188,4.896,2.195c1.343,1.009,2.387,2.305,3.132,3.889c0.744,1.584,1.116,3.504,1.116,5.76
			c0,3.792-1.092,6.768-3.276,8.928c-2.185,2.16-5.148,3.48-8.892,3.96L30.534,48.75H26.718z M13.182,24.198
			c4.223,0,7.452-0.852,9.684-2.557c2.232-1.703,3.348-4.308,3.348-7.812c0-3.552-1.128-6.06-3.384-7.524
			c-2.257-1.463-5.472-2.195-9.648-2.195H3.75v20.088H13.182z"/>
		<path fill="#FFFFFF" d="M66.318,32.478H47.526L41.91,48.75h-3.312L55.302,1.302h3.312L75.318,48.75h-3.456L66.318,32.478z
			 M65.382,29.67l-3.024-8.855c-0.96-2.832-1.872-5.545-2.736-8.137c-0.864-2.592-1.705-5.352-2.52-8.279h-0.288
			c-0.817,2.928-1.656,5.688-2.52,8.279c-0.864,2.592-1.776,5.305-2.736,8.137l-3.024,8.855H65.382z"/>
		<path fill="#FFFFFF" d="M84.101,24.918c0-3.744,0.504-7.128,1.512-10.152c1.008-3.023,2.436-5.604,4.283-7.739
			c1.847-2.135,4.057-3.768,6.625-4.896c2.565-1.127,5.436-1.691,8.604-1.691c1.584,0,3.023,0.168,4.32,0.504
			c1.296,0.336,2.471,0.78,3.527,1.332c1.055,0.552,2.004,1.164,2.844,1.836c0.84,0.673,1.572,1.344,2.197,2.016l-1.945,2.16
			c-1.248-1.344-2.735-2.484-4.463-3.42c-1.729-0.937-3.89-1.404-6.48-1.404c-2.736,0-5.184,0.504-7.344,1.512
			c-2.16,1.009-3.996,2.438-5.508,4.284c-1.512,1.849-2.678,4.093-3.492,6.732c-0.816,2.641-1.225,5.616-1.225,8.928
			c0,3.313,0.385,6.3,1.151,8.964s1.883,4.933,3.349,6.804c1.463,1.872,3.264,3.325,5.399,4.356
			c2.135,1.033,4.547,1.548,7.235,1.548c2.16,0,4.188-0.312,6.084-0.936c1.896-0.624,3.42-1.513,4.572-2.664V28.23h-11.377v-2.809
			h14.545v18.792c-1.488,1.584-3.42,2.88-5.797,3.888c-2.375,1.009-5.146,1.513-8.314,1.513c-3.024,0-5.784-0.576-8.28-1.729
			c-2.496-1.151-4.633-2.795-6.408-4.932c-1.774-2.136-3.155-4.728-4.14-7.776C84.593,32.131,84.101,28.71,84.101,24.918z"/>
		<path fill="#FFFFFF" d="M156.965,32.478h-18.792l-5.616,16.272h-3.312l16.704-47.448h3.313l16.703,47.448h-3.456L156.965,32.478z
			 M156.029,29.67l-3.024-8.855c-0.96-2.832-1.872-5.545-2.735-8.137c-0.865-2.592-1.705-5.352-2.521-8.279h-0.288
			c-0.816,2.928-1.656,5.688-2.52,8.279c-0.864,2.592-1.777,5.305-2.736,8.137l-3.023,8.855H156.029z"/>
	</g>
	<g enable-background="new    ">
		<path fill="#FFFFFF" d="M0.438,48.751H3.75v16.344l9.648,11.018l15.696-27.36h3.816l-17.208,29.88L30.822,96.2h-3.96L3.894,69.847
			H3.75V96.2H0.438V48.751z"/>
		<path fill="#FFFFFF" d="M74.742,48.751h3.456L61.494,96.199h-3.312L41.478,48.751h3.312l5.616,16.271h18.792L74.742,48.751z
			 M51.414,67.831l3.024,8.855c0.959,2.832,1.872,5.545,2.736,8.137c0.864,2.592,1.703,5.352,2.52,8.279h0.288
			c0.815-2.929,1.656-5.688,2.52-8.279c0.864-2.592,1.775-5.305,2.736-8.137l3.024-8.855H51.414z"/>
		<path fill="#FFFFFF" d="M101.094,48.751h3.313v44.568h15.119v2.88H85.973v-2.88h15.121V48.751z"/>
		<path fill="#FFFFFF" d="M160.564,48.751h3.457l-16.705,47.448h-3.313L127.3,48.751h3.313l5.615,16.271h18.793L160.564,48.751z
			 M137.236,67.831l3.025,8.855c0.959,2.832,1.87,5.545,2.734,8.137c0.863,2.592,1.703,5.352,2.521,8.279h0.287
			c0.815-2.929,1.655-5.688,2.521-8.279c0.864-2.592,1.774-5.305,2.735-8.137l3.023-8.855H137.236z"/>
	</g>
</g>
</svg>
